<?xml version="1.0" encoding="utf-8"?>
<!-- Generator: Adobe Illustrator 16.0.0, SVG Export Plug-In . SVG Version: 6.00 Build 0)  -->
<!DOCTYPE svg PUBLIC "-//W3C//DTD SVG 1.1//EN" "http://www.w3.org/Graphics/SVG/1.1/DTD/svg11.dtd">
<svg version="1.1" id="Warstwa_1" xmlns="http://www.w3.org/2000/svg" xmlns:xlink="http://www.w3.org/1999/xlink" x="0px" y="0px"
	 width="396.849px" height="396.851px" viewBox="0 0 396.849 396.851" enable-background="new 0 0 396.849 396.851"
	 xml:space="preserve">
<g>
	<polygon fill="#FFFFFF" points="33.071,33.071 33.071,363.779 363.779,363.779 363.779,33.071 33.071,33.071 	"/>
	<path fill="#FF0064" d="M396.849,396.851V0H0v396.851H396.849L396.849,396.851z M322.259,207.421c0,1.845-0.21,3.485-0.62,5.121
		c-1.43,7.361-5.529,11.864-9.609,14.938c-5.73,4.702-15.351,6.954-25.16,6.75c-9.62-0.209-16.37-2.665-22.71-7.78
		c-1.641-1.222-3.07-2.654-4.3-4.091c-0.211,0.209-0.41,0.408-0.41,0.617c-1.641,1.838-3.471,3.474-5.521,4.909
		c-6.34,4.297-13.91,6.136-23.729,6.136c-9.42,0-17.391-2.66-23.73-7.974c-6.76-5.318-11.67-12.481-11.67-20.872h23.73
		c0.619,3.271,2.05,5.731,4.71,7.162c1.84,1.229,4.3,2.247,6.96,2.247c2.449,0,4.49-0.204,6.13-1.019
		c2.05-1.023,3.689-2.252,4.1-4.707c0.2-2.869-2.25-4.503-6.55-6.343c-1.63-0.611-4.5-1.635-8.39-2.66
		c-6.13-1.635-11.87-4.293-15.141-6.342c-2.04-1.432-4.489-3.684-6.13-4.911c-1.029,2.252-2.66,4.3-4.1,6.139
		c-5.93,7.57-14.94,11.661-23.93,11.661h-4.29h-11.06l0.21,26.594h-23.94v-8.183c-1.22,1.233-2.45,2.456-4.5,3.888
		c-4.09,2.659-8.39,4.096-13.5,4.911c-2.87,0.408-5.93,0.408-9.21,0.408c-9.41,0-17.59-2.864-23.93-7.974
		c-6.75-5.527-10.84-13.301-11.45-20.872h23.72c0.61,3.271,2.25,5.731,4.91,7.367c1.85,1.228,4.09,1.838,6.96,1.838
		c2.46,0,4.09,0,6.13-0.814c1.24-0.616,2.26-1.229,2.87-2.252c0.4-0.616,0.62-1.433,0.62-2.251c0-1.02-0.22-1.839-0.62-2.66
		c-1.02-1.426-2.66-2.455-5.52-3.678c-1.65-0.616-4.71-1.642-8.59-2.869c-5.73-1.838-9.42-3.682-12.69-5.114
		c-4.71-2.252-8.79-6.343-11.04-9.613c-2.66-3.887-4.09-7.978-4.09-14.117c0-7.367,3.47-11.865,7.76-16.165
		c5.53-5.319,13.71-7.563,24.14-7.563c3.689,0,6.96,0.408,10.03,1.228c4.09,1.016,7.77,2.657,10.84,4.7
		c3.28,2.252,4.71,3.682,7.16,6.959v-12.275h34.79h4.29c10.84,0,18.2,5.117,22.91,10.43c0.61,0.408,1.021,1.025,1.431,1.641
		c1.229-1.437,2.26-2.868,3.689-4.096c6.33-5.523,14.311-8.79,24.74-8.79c8.59,0,15.35,2.039,20.67,5.932
		c3.07,2.043,5.94,4.295,7.77,7.565c0.62-1.024,1.23-2.048,2.051-2.863c0.609-1.024,1.64-1.844,2.66-2.868
		c6.13-4.906,14.329-7.359,24.55-7.359c8.6,0,15.55,1.842,20.859,5.525c6.351,4.498,10.44,11.249,11.061,21.071h-23.32
		c-0.62-2.462-1.03-3.893-2.87-5.115c-1.84-1.234-2.66-1.844-5.729-1.844c-2.261,0-4.5,0.61-5.73,1.431
		c-1.43,0.612-2.25,2.043-2.25,3.276c0,2.66,1.23,3.887,6.55,5.523c1.431,0.407,5.11,1.838,11.66,3.683
		c9,2.45,14.931,5.114,19.44,9.409c2.66,2.66,4.49,5.522,5.31,9.409C322.259,202.108,322.459,204.563,322.259,207.421
		L322.259,207.421z M293.819,213.565c2.05-1.023,3.27-2.455,3.479-4.503c0-3.073-2.26-4.707-6.55-6.338
		c-1.64-0.616-4.5-1.437-8.38-2.664c-6.561-2.248-8.601-3.271-11.87-4.906c-4.7-2.252-7.78-4.503-10.44-7.983
		c-0.199-0.407-0.41-0.612-0.609-1.02c-2.66-3.275-4.5-6.755-4.71-12.068h-16.561c-0.21-2.462-1.439-3.893-3.28-5.115
		c-1.63-1.234-2.449-1.64-5.52-1.64c-2.26,0-4.09,0.406-5.52,1.023c-1.44,0.816-2.461,1.839-2.461,3.48
		c0,2.66,1.23,3.887,5.721,5.523c1.229,0.407,5.939,1.43,12.479,3.276c9.011,2.454,14.12,4.288,19.24,8.996
		c0.2,0.203,0.41,0.413,0.61,0.616c3.88,3.883,5.729,7.979,5.729,14.933c0,0,10.431,0,11.05,0c0.21,4.091,1.631,5.936,4.29,7.571
		c2.051,1.023,4.301,1.838,6.96,1.838C289.938,214.584,292.179,214.38,293.819,213.565L293.819,213.565z M179.669,184.307
		c1.83-1.636,3.27-4.294,3.27-7.774c0-2.659-1.84-5.115-3.48-6.343c-1.63-1.431-4.29-1.839-7.56-1.839c-1.03,0-2.25,0-3.49,0h-7.36
		v17.999h10.63c0.22,0,0.22,0,0.22,0C174.759,186.151,178.029,185.54,179.669,184.307L179.669,184.307z M133.429,185.744
		c1.02,0.606,2.87,1.84,3.48,2.654v-14.315l-17.8-0.209h-1.43c-0.2-2.043-1.439-3.887-3.06-4.906
		c-1.65-1.024-3.69-1.437-6.351-1.437c-2.05,0-3.479,0.413-4.709,1.024c-1.22,0.612-2.46,2.043-2.46,3.475
		c0,2.461,0.82,3.072,4.3,4.503c1.23,0.617,4.71,1.641,10.44,3.276c1.23,0.204,2.25,0.408,3.27,0.821
		C125.249,182.264,129.339,183.697,133.429,185.744L133.429,185.744z"/>
</g>
</svg>
